<svg width="128" height="109" viewBox="0 0 128 109" fill="none" xmlns="http://www.w3.org/2000/svg">
<path d="M64 0C86.5371 0 99.3189 14.3006 101.175 31.5831H101.742C116.242 31.5831 128 42.829 128 56.7023C128 70.5665 116.242 81.8215 101.742 81.8215L95.1954 81.8124L95.104 82.0397L81.5451 106.623C81.0002 107.621 80.0989 108.381 79.0188 108.751C77.9388 109.122 76.7583 109.077 75.7099 108.625C74.6615 108.174 73.8212 107.348 73.3545 106.311C72.8878 105.274 72.8286 104.101 73.1886 103.022L73.5177 102.268L84.8091 81.8124H67.8674L67.776 82.0397L54.2171 106.623C53.6722 107.621 52.7709 108.381 51.6908 108.751C50.6108 109.122 49.4303 109.077 48.3819 108.625C47.3335 108.174 46.4932 107.348 46.0265 106.311C45.5598 105.274 45.5006 104.101 45.8606 103.022L46.1897 102.268L57.4811 81.8124H40.384L26.7886 106.623C26.2755 107.557 25.4491 108.282 24.4533 108.673C23.4575 109.063 22.3556 109.094 21.3394 108.759L20.5897 108.432C19.6506 107.923 18.9205 107.104 18.5263 106.115C18.132 105.127 18.0987 104.033 18.432 103.022L18.7611 102.268L29.9611 81.8124H26.2583C11.7577 81.8124 0 70.5756 0 56.7023C0 43.3381 10.8983 32.4195 24.6583 31.6286L26.8251 31.5831C28.6994 14.1915 41.472 0 64 0V0Z" fill="#826C7F"/>
</svg>
