<svg width="128" height="96" viewBox="0 0 128 96" fill="none" xmlns="http://www.w3.org/2000/svg">
<path d="M70.4111 19.2525C90.6847 19.2525 102.191 32.6697 103.861 48.8766H104.373C107.472 48.8724 110.542 49.4786 113.406 50.6606C116.271 51.8427 118.875 53.5774 121.069 55.7657C123.263 57.954 125.004 60.553 126.194 63.4142C127.383 66.2755 127.997 69.343 128 72.4415C127.996 75.5394 127.381 78.6062 126.192 81.4667C125.002 84.3273 123.261 86.9255 121.067 89.1131C118.873 91.3007 116.269 93.0349 113.405 94.2165C110.541 95.3982 107.472 96.0042 104.373 96H36.4427C33.3442 96.0042 30.2752 95.3982 27.4109 94.2165C24.5466 93.0349 21.9432 91.3007 19.7492 89.1131C17.5553 86.9255 15.8137 84.3273 14.6241 81.4667C13.4345 78.6062 12.82 75.5394 12.8158 72.4415C12.8192 69.343 13.433 66.2755 14.6223 63.4142C15.8115 60.553 17.5529 57.954 19.747 55.7657C21.941 53.5774 24.5447 51.8427 27.4094 50.6606C30.2741 49.4786 33.3436 48.8724 36.4427 48.8766H36.9546C38.6377 32.5609 50.1376 19.2525 70.4111 19.2525ZM51.1999 0C61.5478 0 70.7183 5.21461 76.1578 13.1933C74.2508 12.9653 72.3318 12.8521 70.4111 12.8542C51.2511 12.8542 37.3194 23.5841 32.4174 39.8102L31.9823 41.3458L31.6111 42.8686L30.2928 43.1181C25.2474 44.1908 20.5645 46.5479 16.6976 49.9612C12.8308 53.3745 9.91097 57.7283 8.22099 62.6009C4.81883 59.992 2.29676 56.4046 0.993606 52.3206C-0.309546 48.2366 -0.331344 43.8517 0.93114 39.755C2.19362 35.6582 4.67991 32.0459 8.05597 29.4034C11.432 26.7608 15.5361 25.2146 19.8168 24.9725L21.4615 24.9341C22.699 17.9473 26.3575 11.6192 31.7953 7.05982C37.2331 2.50046 44.103 0.00104516 51.1999 0Z" fill="#826C7F"/>
</svg>
