<svg width="115" height="110" viewBox="0 0 115 110" fill="none" xmlns="http://www.w3.org/2000/svg">
<path d="M57.5 0C58.6437 0 59.7406 0.434596 60.5494 1.20818C61.3581 1.98177 61.8125 3.03098 61.8125 4.125V12.375C61.8125 13.469 61.3581 14.5182 60.5494 15.2918C59.7406 16.0654 58.6437 16.5 57.5 16.5C56.3563 16.5 55.2594 16.0654 54.4506 15.2918C53.6419 14.5182 53.1875 13.469 53.1875 12.375V4.125C53.1875 3.03098 53.6419 1.98177 54.4506 1.20818C55.2594 0.434596 56.3563 0 57.5 0ZM86.25 55C86.25 62.2935 83.221 69.2882 77.8293 74.4454C72.4376 79.6027 65.125 82.5 57.5 82.5C49.875 82.5 42.5624 79.6027 37.1707 74.4454C31.779 69.2882 28.75 62.2935 28.75 55C28.75 47.7065 31.779 40.7118 37.1707 35.5546C42.5624 30.3973 49.875 27.5 57.5 27.5C65.125 27.5 72.4376 30.3973 77.8293 35.5546C83.221 40.7118 86.25 47.7065 86.25 55V55ZM110.688 59.125C111.831 59.125 112.928 58.6904 113.737 57.9168C114.546 57.1432 115 56.094 115 55C115 53.906 114.546 52.8568 113.737 52.0832C112.928 51.3096 111.831 50.875 110.688 50.875H102.062C100.919 50.875 99.8218 51.3096 99.0131 52.0832C98.2043 52.8568 97.75 53.906 97.75 55C97.75 56.094 98.2043 57.1432 99.0131 57.9168C99.8218 58.6904 100.919 59.125 102.062 59.125H110.688ZM57.5 93.5C58.6437 93.5 59.7406 93.9346 60.5494 94.7082C61.3581 95.4818 61.8125 96.531 61.8125 97.625V105.875C61.8125 106.969 61.3581 108.018 60.5494 108.792C59.7406 109.565 58.6437 110 57.5 110C56.3563 110 55.2594 109.565 54.4506 108.792C53.6419 108.018 53.1875 106.969 53.1875 105.875V97.625C53.1875 96.531 53.6419 95.4818 54.4506 94.7082C55.2594 93.9346 56.3563 93.5 57.5 93.5ZM12.9375 59.125C14.0812 59.125 15.1781 58.6904 15.9869 57.9168C16.7956 57.1432 17.25 56.094 17.25 55C17.25 53.906 16.7956 52.8568 15.9869 52.0832C15.1781 51.3096 14.0812 50.875 12.9375 50.875H4.3125C3.16875 50.875 2.07185 51.3096 1.2631 52.0832C0.454351 52.8568 0 53.906 0 55C0 56.094 0.454351 57.1432 1.2631 57.9168C2.07185 58.6904 3.16875 59.125 4.3125 59.125H12.9375ZM12.765 12.21C13.5736 11.4375 14.6697 11.0036 15.8125 11.0036C16.9553 11.0036 18.0514 11.4375 18.86 12.21L27.485 20.46C28.2468 21.242 28.6615 22.2762 28.6418 23.3449C28.622 24.4135 28.1695 25.4331 27.3793 26.1889C26.5892 26.9447 25.5232 27.3776 24.406 27.3965C23.2888 27.4153 22.2075 27.0186 21.39 26.29L12.765 18.04C11.9574 17.2666 11.5038 16.2181 11.5038 15.125C11.5038 14.0319 11.9574 12.9834 12.765 12.21V12.21ZM18.86 97.79C18.4652 98.1953 17.9891 98.5203 17.4601 98.7458C16.9311 98.9713 16.36 99.0925 15.781 99.1023C15.202 99.112 14.6268 99.0101 14.0898 98.8027C13.5528 98.5952 13.065 98.2864 12.6555 97.8947C12.246 97.503 11.9232 97.0364 11.7063 96.5228C11.4894 96.0091 11.3829 95.459 11.3931 94.9051C11.4033 94.3513 11.5301 93.805 11.7658 93.299C12.0015 92.793 12.3413 92.3376 12.765 91.96L21.39 83.71C21.7848 83.3047 22.2609 82.9797 22.7899 82.7542C23.3189 82.5287 23.89 82.4075 24.469 82.3977C25.048 82.388 25.6232 82.4899 26.1602 82.6973C26.6972 82.9048 27.185 83.2136 27.5945 83.6053C28.004 83.997 28.3268 84.4636 28.5437 84.9772C28.7606 85.4909 28.8671 86.041 28.8569 86.5949C28.8467 87.1487 28.7199 87.695 28.4842 88.201C28.2485 88.707 27.9087 89.1624 27.485 89.54L18.86 97.79ZM102.235 12.21C101.426 11.4375 100.33 11.0036 99.1875 11.0036C98.0447 11.0036 96.9486 11.4375 96.14 12.21L87.515 20.46C86.7532 21.242 86.3385 22.2762 86.3582 23.3449C86.378 24.4135 86.8306 25.4331 87.6207 26.1889C88.4108 26.9447 89.4768 27.3776 90.594 27.3965C91.7112 27.4153 92.7925 27.0186 93.61 26.29L102.235 18.04C103.043 17.2666 103.496 16.2181 103.496 15.125C103.496 14.0319 103.043 12.9834 102.235 12.21V12.21ZM96.14 97.79C96.5348 98.1953 97.0109 98.5203 97.5399 98.7458C98.0689 98.9713 98.64 99.0925 99.219 99.1023C99.798 99.112 100.373 99.0101 100.91 98.8027C101.447 98.5952 101.935 98.2864 102.344 97.8947C102.754 97.503 103.077 97.0364 103.294 96.5228C103.511 96.0091 103.617 95.459 103.607 94.9051C103.597 94.3513 103.47 93.805 103.234 93.299C102.999 92.793 102.659 92.3376 102.235 91.96L93.61 83.71C93.2152 83.3047 92.7391 82.9797 92.2101 82.7542C91.6811 82.5287 91.11 82.4075 90.531 82.3977C89.952 82.388 89.3768 82.4899 88.8398 82.6973C88.3028 82.9048 87.815 83.2136 87.4055 83.6053C86.996 83.997 86.6732 84.4636 86.4563 84.9772C86.2394 85.4909 86.1329 86.041 86.1431 86.5949C86.1533 87.1487 86.2801 87.695 86.5158 88.201C86.7515 88.707 87.0913 89.1624 87.515 89.54L96.14 97.79Z" fill="#826C7F"/>
</svg>
