<svg width="106" height="106" viewBox="0 0 106 106" fill="none" xmlns="http://www.w3.org/2000/svg">
<path d="M52.9967 0C54.1973 5.06374e-05 55.3573 0.43491 56.2621 1.22416C57.167 2.01341 57.7555 3.10365 57.9188 4.29327L57.9651 4.96906V20.6912L67.9484 11.9191C68.9384 11.0493 70.2334 10.6085 71.5484 10.6936C72.8635 10.7787 74.0908 11.3828 74.9605 12.373C75.8302 13.3631 76.271 14.6583 76.1859 15.9735C76.1008 17.2886 75.4968 18.5162 74.5067 19.386L57.9651 33.9155V48.021H72.0821L86.6231 31.484C87.4093 30.5895 88.4905 30.0072 89.6699 29.843C90.8493 29.6788 92.0484 29.9438 93.0489 30.5895L93.6385 31.0334C94.5329 31.8197 95.1152 32.9011 95.2793 34.0806C95.4435 35.2602 95.1786 36.4595 94.5328 37.4601L94.089 38.0498L85.3114 48.021H101.032C102.233 48.0213 103.394 48.4571 104.299 49.2477C105.204 50.0382 105.792 51.1301 105.954 52.3209L106 52.9967C106 54.1975 105.565 55.3576 104.776 56.2626C103.987 57.1675 102.897 57.7561 101.707 57.9194L101.032 57.9657H85.2982L94.0757 67.9569C94.8618 68.8508 95.3009 69.9973 95.3131 71.1877C95.3252 72.3781 94.9097 73.5333 94.142 74.4432L93.6253 74.9732C92.7302 75.7602 91.5821 76.1993 90.3903 76.2102C89.1985 76.2211 88.0426 75.8033 87.1332 75.0328L86.6098 74.516L72.0689 57.9657L57.9585 57.9591L57.9651 72.0845L74.5133 86.6207C75.4088 87.4061 75.9923 88.487 76.1577 89.6666C76.323 90.8462 76.0592 92.0459 75.4143 93.0473L74.9704 93.637C74.1843 94.5314 73.103 95.1138 71.9236 95.278C70.7442 95.4421 69.5451 95.1772 68.5446 94.5314L67.955 94.0875L57.9585 85.3088V101.038C57.9582 102.239 57.5225 103.4 56.732 104.305C55.9415 105.21 54.8498 105.798 53.6591 105.96L52.9834 106C51.7828 106 50.6228 105.565 49.718 104.776C48.8131 103.987 48.2247 102.896 48.0614 101.707L48.015 101.031V85.3155L38.0516 94.0875C37.0616 94.9573 35.7666 95.3981 34.4516 95.313C33.1366 95.2279 31.9092 94.6238 31.0395 93.6337C30.1698 92.6435 29.729 91.3484 29.8141 90.0332C29.8992 88.718 30.5032 87.4905 31.4933 86.6207L48.0216 72.0779V57.9657L35.0838 57.9724L19.3902 75.8477C18.5205 76.8379 17.2931 77.442 15.9781 77.5271C14.6631 77.6122 13.3681 77.1714 12.378 76.3016C11.388 75.4318 10.784 74.2043 10.6989 72.8891C10.6138 71.5739 11.0546 70.2787 11.9243 69.2886L21.8611 57.9724H4.96844C3.76682 57.9721 2.60601 57.5363 1.70102 56.7457C0.796035 55.9551 0.20819 54.8633 0.0463719 53.6725L0 53.0033C5.0631e-05 51.8025 0.434855 50.6424 1.224 49.7374C2.01315 48.8325 3.10326 48.2439 4.29273 48.0806L4.96844 48.0343L19.5028 48.0276L11.9243 39.3748C11.4725 38.888 11.1228 38.3155 10.896 37.6913C10.6692 37.067 10.5699 36.4035 10.6039 35.7402C10.6379 35.0769 10.8045 34.4271 11.0938 33.8292C11.3832 33.2314 11.7895 32.6976 12.2887 32.2595C12.7879 31.8214 13.3698 31.4879 14.0001 31.2785C14.6304 31.0692 15.2962 30.9884 15.9583 31.0409C16.6203 31.0933 17.2651 31.278 17.8546 31.584C18.4441 31.89 18.9662 32.311 19.3902 32.8223L32.7255 48.0276H48.015V33.9089L31.4867 19.3727C30.5923 18.5864 30.01 17.5051 29.8459 16.3255C29.6817 15.146 29.9466 13.9467 30.5923 12.9461L31.0362 12.363C31.8215 11.4675 32.9023 10.8839 34.0817 10.7185C35.2612 10.5531 36.4608 10.817 37.462 11.462L38.045 11.9059L48.0282 20.6845V4.96906C48.0288 3.88021 48.387 2.82169 49.0476 1.95624C49.7083 1.0908 50.6349 0.466342 51.685 0.178886L52.3276 0.0463777L52.9967 0Z" fill="#826C7F"/>
</svg>
