<svg width="112" height="112" viewBox="0 0 112 112" fill="none" xmlns="http://www.w3.org/2000/svg">
<path d="M61.5921 100.8C63.0774 100.8 64.5018 101.39 65.5521 102.44C66.6023 103.49 67.1923 104.915 67.1923 106.4C67.1923 107.885 66.6023 109.31 65.5521 110.36C64.5018 111.41 63.0774 112 61.5921 112C60.1068 112 58.6824 111.41 57.6321 110.36C56.5819 109.31 55.9918 107.885 55.9918 106.4C55.9918 104.915 56.5819 103.49 57.6321 102.44C58.6824 101.39 60.1068 100.8 61.5921 100.8ZM41.9912 95.2001C43.4765 95.2001 44.9009 95.7901 45.9512 96.8403C47.0014 97.8905 47.5914 99.3149 47.5914 100.8C47.5914 102.285 47.0014 103.71 45.9512 104.76C44.9009 105.81 43.4765 106.4 41.9912 106.4C40.5059 106.4 39.0815 105.81 38.0312 104.76C36.981 103.71 36.3909 102.285 36.3909 100.8C36.3909 99.3149 36.981 97.8905 38.0312 96.8403C39.0815 95.7901 40.5059 95.2001 41.9912 95.2001ZM81.193 95.2001C82.6783 95.2001 84.1027 95.7901 85.153 96.8403C86.2032 97.8905 86.7932 99.3149 86.7932 100.8C86.7932 102.285 86.2032 103.71 85.153 104.76C84.1027 105.81 82.6783 106.4 81.193 106.4C79.7077 106.4 78.2833 105.81 77.233 104.76C76.1828 103.71 75.5927 102.285 75.5927 100.8C75.5927 99.3149 76.1828 97.8905 77.233 96.8403C78.2833 95.7901 79.7077 95.2001 81.193 95.2001ZM61.6033 22.4509C79.3449 22.4509 89.4142 34.194 90.8758 48.3787H91.3239C94.0359 48.375 96.7221 48.9056 99.229 49.9402C101.736 50.9748 104.014 52.493 105.934 54.4083C107.855 56.3236 109.378 58.5983 110.419 61.1025C111.46 63.6068 111.997 66.2915 112 69.0034C111.996 71.7148 111.459 74.399 110.418 76.9026C109.376 79.4062 107.852 81.6803 105.933 83.5949C104.013 85.5096 101.734 87.0274 99.2277 88.0616C96.7211 89.0958 94.0354 89.6262 91.3239 89.6225H31.8771C29.1656 89.6262 26.4798 89.0958 23.9733 88.0616C21.4667 87.0274 19.1884 85.5096 17.2685 83.5949C15.3485 81.6803 13.8245 79.4062 12.7834 76.9026C11.7424 74.399 11.2046 71.7148 11.201 69.0034C11.2039 66.2915 11.7411 63.6068 12.7818 61.1025C13.8226 58.5983 15.3465 56.3236 17.2665 54.4083C19.1865 52.493 21.4651 50.9748 23.972 49.9402C26.4789 48.9056 29.1651 48.375 31.8771 48.3787H32.3251C33.798 34.0988 43.8617 22.4509 61.6033 22.4509ZM13.2451 45.7187C13.6345 46.6566 13.6709 47.7038 13.3476 48.6664C13.0243 49.6291 12.3632 50.442 11.4866 50.9547L10.9714 51.2067L5.78552 53.3571C4.80349 53.7573 3.70639 53.7713 2.71447 53.3962C1.72256 53.0211 0.909253 52.2847 0.437832 51.3348C-0.0335902 50.3849 -0.128231 49.2919 0.172907 48.2751C0.474045 47.2584 1.14867 46.3931 2.06135 45.8531L2.57097 45.5955L7.75681 43.4452C8.26646 43.234 8.81271 43.1254 9.36436 43.1254C9.91602 43.1254 10.4623 43.2341 10.9719 43.4452C11.4816 43.6563 11.9446 43.9658 12.3346 44.3559C12.7247 44.746 13.034 45.2091 13.2451 45.7187ZM49.5739 18.6541L48.6163 18.9789C38.6198 22.5069 31.4627 30.2068 28.3714 40.3876L27.9737 41.7876L27.6489 43.1204L26.4953 43.3388C23.1447 44.0422 19.9663 45.401 17.1428 47.3371C14.5761 42.9256 13.6173 37.7611 14.4297 32.7223C15.2421 27.6835 17.7754 23.0819 21.5987 19.7006C25.4219 16.3192 30.2987 14.367 35.3992 14.1762C40.4997 13.9854 45.5088 15.5678 49.5739 18.6541ZM5.2591 18.8277L5.84713 19.0237L11.033 21.1741C12.0055 21.584 12.7881 22.3451 13.2249 23.3058C13.6618 24.2666 13.7209 25.3565 13.3906 26.3589C13.0602 27.3612 12.3645 28.2025 11.442 28.7152C10.5195 29.228 9.43778 29.3746 8.41204 29.126L7.81842 28.9356L2.63258 26.7852C1.65743 26.3765 0.87234 25.615 0.434034 24.6528C-0.00427189 23.6907 -0.0635384 22.5986 0.268067 21.5946C0.599672 20.5907 1.29775 19.7487 2.22293 19.2368C3.14811 18.725 4.23232 18.5809 5.2591 18.8333V18.8277ZM26.6241 2.10616L26.8761 2.61576L29.0266 7.80133C29.4327 8.78419 29.4508 9.88449 29.0772 10.8802C28.7037 11.8758 27.9664 12.6928 27.014 13.1661C26.0617 13.6394 24.9653 13.7338 23.946 13.4303C22.9267 13.1269 22.0605 12.4481 21.5222 11.5309L21.2646 11.0157L19.1141 5.83014C18.7139 4.84816 18.6999 3.75112 19.075 2.75925C19.4501 1.76739 20.1866 0.954126 21.1365 0.482728C22.0864 0.0113305 23.1795 -0.0833057 24.1964 0.217817C25.2132 0.51894 26.0785 1.19353 26.6185 2.10616H26.6241ZM51.002 0.319773C51.9318 0.705672 52.6921 1.41268 53.1443 2.31204C53.5966 3.2114 53.7108 4.24327 53.4661 5.21975L53.2757 5.80775L51.1252 10.9933C50.7152 11.9658 49.9541 12.7483 48.9933 13.1852C48.0326 13.622 46.9425 13.6811 45.9401 13.3508C44.9377 13.0204 44.0964 12.3248 43.5837 11.4024C43.0709 10.4799 42.9242 9.39822 43.1728 8.37253L43.3689 7.77894L45.5137 2.59336C45.7248 2.08369 46.0341 1.62058 46.4242 1.23048C46.8142 0.840383 47.2773 0.530931 47.7869 0.319803C48.2966 0.108674 48.8428 5.04173e-06 49.3945 1.7543e-10C49.9461 -5.04138e-06 50.4923 0.108654 51.002 0.319773Z" fill="#12355B"/>
</svg>
